# xmcd
#
# Track frame offsets:
#	150
#	12915
#	23590
#	35565
#	44746
#	57049
#	70801
#	82707
#	94083
#	104542
#	118132
#	131888
#	149741
#	167361
#	182125
#	194783
#	206816
#	222419
#	243097
#	255205
#	269381
#	280456
#	290219
#	307238
#	317392
#
# Disc length: 4361 seconds
# Revision: 0
# Processed by: cddbd v1.5.2PL0 Copyright (c) Steve Scherf et al.
# Submitted via: dBpowerAMP V12.0
#
DISCID=82110719
DTITLE=Glen Campbell - The Platinum Collection
DYEAR=1900
DGENRE=Country
TTITLE0=By The Time I Get To Phoenix
TTITLE1=Time In A Bottle
TTITLE2=It's Over
TTITLE3=Let It Be Me
TTITLE4=I Wanna Live
TTITLE5=Wichita Lineman
TTITLE6=Galveston
TTITLE7=Dream Baby
TTITLE8=Too Many Secrets
TTITLE9=Rhinestone Cowboy
TTITLE10=Make It Easy On Youself
TTITLE11=Colleen
TTITLE12=You've Lost That Loving Feeling
TTITLE13=And I Love You So
TTITLE14=You'll Never Walk Alone
TTITLE15=You Don't Have to Say You Love Me
TTITLE16=Feelings
TTITLE17=Bridge Over Troubled Water
TTITLE18=Take Me Back
TTITLE19=In Your Loving Arms Again
TTITLE20=It's Only Make Believe
TTITLE21=Dreams Of The Everyday Housewife
TTITLE22=Southern Nights
TTITLE23=Try A Little Kindness
TTITLE24=Gentle On My Mind
EXTD=
EXTT0=
EXTT1=
EXTT2=
EXTT3=
EXTT4=
EXTT5=
EXTT6=
EXTT7=
EXTT8=
EXTT9=
EXTT10=
EXTT11=
EXTT12=
EXTT13=
EXTT14=
EXTT15=
EXTT16=
EXTT17=
EXTT18=
EXTT19=
EXTT20=
EXTT21=
EXTT22=
EXTT23=
EXTT24=
PLAYORDER=
